<?xml version="1.0" encoding="UTF-8" standalone="no"?>
<!DOCTYPE svg PUBLIC "-//W3C//DTD SVG 1.1//EN" "http://www.w3.org/Graphics/SVG/1.1/DTD/svg11.dtd">
<svg width="100%" height="100%" viewBox="0 0 512 512" version="1.1" xmlns="http://www.w3.org/2000/svg" xmlns:xlink="http://www.w3.org/1999/xlink" xml:space="preserve" xmlns:serif="http://www.serif.com/" style="fill-rule:evenodd;clip-rule:evenodd;stroke-linejoin:round;stroke-miterlimit:2;">
    <rect id="アートボード1" x="0" y="0" width="512" height="512" style="fill:none;"/>
    <g id="アートボード11" serif:id="アートボード1">
        <g>
            <path d="M265.932,104.31C270.033,119.77 277.185,146.731 212.775,297.049C207.804,308.65 170.851,394.888 123.752,427.298C90.901,449.903 51.062,420.507 95.142,385.748C100.866,381.235 134.032,355.083 174.491,340.968C345.855,281.183 377.16,292.165 406.099,300.33C456.666,314.599 434.357,349.418 402.464,347.242C359.159,344.288 333.962,320.3 326.02,313.394C231.729,231.414 206.876,144.607 216.855,105.672C225.129,73.392 259.157,78.771 265.932,104.31Z" style="fill:rgb(9,5,1);fill-opacity:0;"/>
            <path d="M213.514,341.015C185.566,390.772 162.587,413.807 159.06,417.441C147.998,428.84 140.202,435.197 132.654,440.252C101.813,460.905 65.915,448.393 61.308,421.619C59.998,414.01 59.578,395.38 85.713,375.002C106.446,358.835 127.381,347.701 131.204,345.667C152.015,334.599 166.579,329.833 177.552,326.23C181.698,317.504 184.512,310.935 185.776,308.168C185.909,307.878 190.713,298.008 204.149,263.932C206.541,257.867 206.494,257.85 207.27,256.147C215.033,239.118 221.535,224.118 226.972,210.886C220.666,198.899 215.969,187.945 212.487,178.349C198.922,140.974 196.369,102.785 213.503,82.492C231.431,61.258 263.579,67.058 276.242,91.815C277.164,93.618 277.857,95.393 277.981,95.711C278.997,98.313 279.534,100.44 279.605,100.69C284.15,115.785 289.379,137.397 264.336,217.642C263.762,219.48 263.184,221.311 262.604,223.131C274.512,241.988 291.503,264.405 315.546,288.034C324.077,286.446 332.289,285.164 340.003,284.277C363.474,281.577 377.656,282.654 388.954,284.639C389.915,284.807 392.958,284.731 404.705,286.787C408.654,287.478 420.238,289.075 431.624,294.698C448.679,303.12 455.468,317.348 453.761,331.343C453.756,331.386 452.851,336.302 449.286,341.876C439.602,357.015 419.829,363.474 402.019,361.059C396.233,360.275 389.766,358.608 388.714,358.337C381.079,356.37 376.979,354.636 375.273,354.164C343.97,345.508 324.402,327.179 317.36,321.072C314.233,318.36 311.19,315.653 308.229,312.954C307.276,313.171 306.313,313.393 305.34,313.62C275.379,320.608 239.314,332.222 213.514,341.015ZM158.59,361.902C146.874,367.616 131.858,376.085 115.12,388.353C112.086,390.577 104.741,396.09 100.746,399.738C91.288,408.375 89.36,415.086 90.883,417.07C93.511,420.494 104.078,422.03 114.579,414.537C126.659,405.917 135.276,395.173 136.318,393.914C144.586,383.921 152.072,372.784 158.59,361.902ZM252.934,252.123C250.365,259.53 247.966,266.248 245.922,271.899C245.397,273.35 245.079,274.229 238.332,289.628C235.193,296.792 232.191,303.574 229.348,309.795C248.416,304.084 268.736,298.435 288.42,293.799C274.461,279.457 262.752,265.468 252.934,252.123ZM252.258,107.93C249.55,98.314 242.013,95.753 237.451,97.814C227.02,102.526 222.99,131.901 237.678,172.95C238.168,174.32 238.802,176.062 239.606,178.144C257.424,128.099 253.802,115.116 252.258,107.93ZM336.617,307.469C344.851,314.672 358.93,325.842 380.586,331.94C381.17,332.105 381.43,332.315 385.725,332.828C386.74,332.95 394.004,333.872 402.947,333.512C405.536,333.408 409.18,332.669 411.843,331.346C416.892,328.837 418.381,325.855 418.348,324.833C418.105,324.785 417.861,324.736 417.617,324.687C417.689,324.701 417.971,324.757 418.348,324.829C418.343,324.677 418.303,324.569 418.237,324.512C418.206,324.486 418.171,324.466 418.14,324.44C418.204,324.468 418.569,324.626 418.905,324.758C418.601,323.893 417.8,322.71 416.636,321.501C416.136,320.981 413.131,317.534 403.509,313.415C400.426,312.095 387.494,307.019 384.704,306.541C372.669,304.48 358.037,304.226 336.617,307.469ZM417.617,324.687C417.594,324.682 417.592,324.682 417.617,324.687Z" style="fill:rgb(179,11,0);"/>
        </g>
    </g>
</svg>
