<?xml version="1.0" encoding="UTF-8" standalone="no"?>
<!DOCTYPE svg PUBLIC "-//W3C//DTD SVG 1.1//EN" "http://www.w3.org/Graphics/SVG/1.1/DTD/svg11.dtd">
<svg width="100%" height="100%" viewBox="0 0 512 512" version="1.1" xmlns="http://www.w3.org/2000/svg" xmlns:xlink="http://www.w3.org/1999/xlink" xml:space="preserve" xmlns:serif="http://www.serif.com/" style="fill-rule:evenodd;clip-rule:evenodd;stroke-linejoin:round;stroke-miterlimit:2;">
    <rect id="アートボード1" x="0" y="0" width="512" height="512" style="fill:none;"/>
    <g id="アートボード11" serif:id="アートボード1">
        <g>
            <g transform="matrix(0.925463,0,0,1.1086,27.089,-61.6844)">
                <path d="M298.644,84.705L298.644,185.635L93.34,185.635L93.34,102.746C93.34,92.782 103.015,84.705 114.951,84.705C167.68,84.705 298.644,84.705 298.644,84.705Z" style="fill:rgb(59,176,130);"/>
            </g>
            <g transform="matrix(0.925463,0,0,1.1086,27.089,50.2058)">
                <rect x="93.34" y="84.705" width="205.304" height="100.93" style="fill:rgb(0,138,91);"/>
            </g>
            <g transform="matrix(0.925463,0,0,1.1086,27.089,162.096)">
                <rect x="93.34" y="84.705" width="205.304" height="100.93" style="fill:rgb(37,108,72);"/>
            </g>
            <g transform="matrix(0.925463,0,0,1.1086,27.089,273.986)">
                <path d="M298.644,84.705L298.644,185.635L114.951,185.635C103.015,185.635 93.34,177.558 93.34,167.594C93.34,138.564 93.34,84.705 93.34,84.705L298.644,84.705Z" style="fill:rgb(0,105,74);"/>
            </g>
            <g transform="matrix(0.925463,0,0,1.1086,217.09,273.986)">
                <path d="M298.644,84.705L298.644,167.594C298.644,177.558 288.968,185.635 277.033,185.635C224.304,185.635 93.34,185.635 93.34,185.635L93.34,84.705L298.644,84.705Z" style="fill:rgb(37,108,72);"/>
            </g>
            <g transform="matrix(0.925463,0,0,1.1086,217.09,162.096)">
                <rect x="93.34" y="84.705" width="205.304" height="100.93" style="fill:rgb(0,138,91);"/>
            </g>
            <g transform="matrix(0.925463,0,0,1.1086,217.09,50.2058)">
                <rect x="93.34" y="84.705" width="205.304" height="100.93" style="fill:rgb(59,176,130);"/>
            </g>
            <g transform="matrix(0.925463,0,0,1.1086,217.09,-61.6844)">
                <path d="M277.011,84.705C288.958,84.705 298.644,92.791 298.644,102.764L298.644,185.635L93.34,185.635L93.34,84.705L277.011,84.705Z" style="fill:rgb(110,204,148);"/>
            </g>
            <g transform="matrix(0.732803,0,0,1.0909,52.1913,-15.7151)">
                <path d="M307.787,158.742L307.787,358.435C307.787,365.187 299.626,370.67 289.573,370.67L83.625,370.918L83.625,146.507L289.573,146.507C299.626,146.507 307.787,151.99 307.787,158.742Z" style="fill-opacity:0.26;"/>
            </g>
            <g transform="matrix(1.0909,0,0,1.0909,-68.7283,-26.0942)">
                <path d="M307.787,164.721L307.787,352.456C307.787,362.508 299.626,370.67 289.573,370.67L101.838,370.67C91.786,370.67 83.625,362.508 83.625,352.456L83.625,164.721C83.625,154.669 91.786,146.507 101.838,146.507L289.573,146.507C299.626,146.507 307.787,154.669 307.787,164.721Z" style="fill:rgb(44,133,87);"/>
            </g>
            <g transform="matrix(0.854553,0,0,0.879615,38.3239,35.2544)">
                <text x="56.051px" y="324.644px" style="font-family:'Arial-BoldMT', 'Arial', sans-serif;font-weight:700;font-size:205.881px;fill:white;">X</text>
            </g>
        </g>
    </g>
</svg>
