<?xml version="1.0" encoding="UTF-8" standalone="no"?>
<!DOCTYPE svg PUBLIC "-//W3C//DTD SVG 1.1//EN" "http://www.w3.org/Graphics/SVG/1.1/DTD/svg11.dtd">
<svg width="100%" height="100%" viewBox="0 0 512 512" version="1.1" xmlns="http://www.w3.org/2000/svg" xmlns:xlink="http://www.w3.org/1999/xlink" xml:space="preserve" xmlns:serif="http://www.serif.com/" style="fill-rule:evenodd;clip-rule:evenodd;stroke-linejoin:round;stroke-miterlimit:2;">
    <rect id="アートボード1" x="0" y="0" width="512" height="512" style="fill:none;"/>
    <g id="アートボード11" serif:id="アートボード1">
        <g>
            <g transform="matrix(8.73985e-17,1.42733,-1.49683,9.16546e-17,870.081,-388.478)">
                <path d="M493.66,279.289L439.669,279.289C439.669,279.289 446.741,266.883 450.647,260.03C452.2,257.306 455.191,255.61 458.443,255.61C466.3,255.61 480.162,255.61 480.162,255.61L493.66,279.289Z" style="fill:rgb(4,32,113);"/>
            </g>
            <g transform="matrix(1.00407,0,0,1,-2.49592,0)">
                <path d="M439.917,43.924C450.179,43.924 458.498,52.277 458.498,62.581C458.498,80.969 458.498,106.331 458.498,106.331L150.752,106.331L150.752,62.581C150.752,52.277 159.071,43.924 169.333,43.924C224.196,43.924 385.054,43.924 439.917,43.924Z" style="fill:rgb(4,100,184);"/>
            </g>
            <g transform="matrix(0.334691,0,0,1.55804,304.415,37.8956)">
                <rect x="150.752" y="43.924" width="307.746" height="62.407" style="fill:rgb(79,216,255);"/>
            </g>
            <g transform="matrix(0.334691,0,0,1.55804,304.415,135.129)">
                <rect x="150.752" y="43.924" width="307.746" height="62.407" style="fill:rgb(41,167,235);"/>
            </g>
            <g transform="matrix(0.334691,0,0,1.55804,304.415,232.362)">
                <rect x="150.752" y="43.924" width="307.746" height="62.407" style="fill:rgb(22,129,215);"/>
            </g>
            <g transform="matrix(0.334691,0,0,1.55804,201.415,232.362)">
                <rect x="150.752" y="43.924" width="307.746" height="62.407" style="fill:rgb(4,100,184);"/>
            </g>
            <g transform="matrix(0.334691,0,0,1.55804,201.415,37.8956)">
                <rect x="150.752" y="43.924" width="307.746" height="62.407" style="fill:rgb(41,167,235);"/>
            </g>
            <g transform="matrix(0.334691,0,0,1.55804,201.415,135.129)">
                <rect x="150.752" y="43.924" width="307.746" height="62.407" style="fill:rgb(1,120,212);"/>
            </g>
            <g transform="matrix(0.334691,0,0,1.55804,98.4148,37.8956)">
                <rect x="150.752" y="43.924" width="307.746" height="62.407" style="fill:rgb(1,120,212);"/>
            </g>
            <g transform="matrix(9.73391e-17,-1.58967,1.33784,8.1919e-17,-177.42,1016.15)">
                <path d="M395.68,349.414L470.746,496.992L360.536,496.992C354.639,496.992 349.164,493.356 346.074,487.388C342.984,481.42 342.722,473.974 345.381,467.72C363.675,424.692 395.68,349.414 395.68,349.414Z" style="fill:rgb(22,143,222);"/>
            </g>
            <g transform="matrix(1.08,0,0,1.81525,-33.6048,-365.619)">
                <path d="M140.562,349.414L457.87,460.35L163.71,460.35C157.57,460.35 151.683,458.899 147.342,456.316C143,453.734 140.562,450.231 140.562,446.578L140.562,349.414Z" style="fill:rgb(41,167,235);"/>
            </g>
            <g transform="matrix(1.0294,0,0,1.04422,-12.6106,-5.05931)">
                <path d="M127.075,371.869L127.075,150.77L252.69,150.77C264.132,150.77 273.422,159.928 273.422,171.208L273.422,351.43C273.422,362.711 264.132,371.869 252.69,371.869L127.075,371.869Z" style="fill:rgb(0,0,3);fill-opacity:0.2;"/>
            </g>
            <g transform="matrix(0.932858,0,0,0.932858,-4.54376,6.95531)">
                <path d="M279.296,166.101L279.296,367.838C279.296,380.465 269.045,390.716 256.418,390.716L54.681,390.716C42.054,390.716 31.802,380.465 31.802,367.838L31.802,166.101C31.802,153.474 42.054,143.222 54.681,143.222L256.418,143.222C269.045,143.222 279.296,153.474 279.296,166.101Z" style="fill:rgb(22,129,215);"/>
            </g>
            <g transform="matrix(0.852765,0,0,0.852765,28.0744,46.2592)">
                <g transform="matrix(0.93401,0,0,1,3.76578,0)">
                    <g transform="matrix(205.134,0,0,205.134,216.626,319.373)">
                    </g>
                    <text x="57.066px" y="319.373px" style="font-family:'Arial-BoldMT', 'Arial', sans-serif;font-weight:700;font-size:205.134px;fill:white;">O</text>
                </g>
            </g>
        </g>
    </g>
</svg>
