<?xml version="1.0" encoding="UTF-8" standalone="no"?>
<!DOCTYPE svg PUBLIC "-//W3C//DTD SVG 1.1//EN" "http://www.w3.org/Graphics/SVG/1.1/DTD/svg11.dtd">
<svg width="100%" height="100%" viewBox="0 0 512 512" version="1.1" xmlns="http://www.w3.org/2000/svg" xmlns:xlink="http://www.w3.org/1999/xlink" xml:space="preserve" xmlns:serif="http://www.serif.com/" style="fill-rule:evenodd;clip-rule:evenodd;stroke-linejoin:round;stroke-miterlimit:2;">
    <rect id="アートボード1" x="0" y="0" width="512" height="512" style="fill:none;"/>
    <g id="アートボード11" serif:id="アートボード1">
        <g>
            <g transform="matrix(1.01933,0,0,1.19833,-9.46938,-5.15657)">
                <path d="M470.138,26C475.342,26 480.332,27.758 484.012,30.888C487.692,34.018 489.759,38.263 489.759,42.69L489.759,121.967L116.964,121.967L116.964,42.69C116.964,38.263 119.031,34.018 122.711,30.888C126.391,27.758 131.381,26 136.585,26L470.138,26Z" style="fill:rgb(80,156,229);"/>
            </g>
            <g transform="matrix(1.01933,0,0,1.19833,-9.46938,109.843)">
                <rect x="116.964" y="26" width="372.794" height="95.967" style="fill:rgb(60,134,208);"/>
            </g>
            <g transform="matrix(1.01933,0,0,1.19833,-9.46938,224.843)">
                <rect x="116.964" y="26" width="372.794" height="95.967" style="fill:rgb(51,110,196);"/>
            </g>
            <g transform="matrix(1.01933,0,0,1.19833,-9.46938,339.843)">
                <path d="M489.759,26L489.759,105.277C489.759,109.703 487.692,113.949 484.012,117.079C480.332,120.209 475.342,121.967 470.138,121.967L136.585,121.967C131.381,121.967 126.391,120.209 122.711,117.079C119.031,113.949 116.964,109.703 116.964,105.277L116.964,26L489.759,26Z" style="fill:rgb(36,88,176);"/>
            </g>
            <g transform="matrix(0.823874,0,0,1.15459,40.8602,-30.4096)">
                <path d="M307.787,159.504L307.787,357.673C307.787,364.846 299.626,370.67 289.573,370.67L83.625,370.548L83.625,146.01L289.573,146.507C299.626,146.507 307.787,152.331 307.787,159.504Z" style="fill-opacity:0.18;"/>
            </g>
            <g transform="matrix(1.15459,0,0,1.15459,-72.2797,-42.5649)">
                <path d="M307.787,164.721L307.787,352.456C307.787,362.508 299.626,370.67 289.573,370.67L101.838,370.67C91.786,370.67 83.625,362.508 83.625,352.456L83.625,164.721C83.625,154.669 91.786,146.507 101.838,146.507L289.573,146.507C299.626,146.507 307.787,154.669 307.787,164.721Z" style="fill:rgb(0,85,170);"/>
            </g>
            <g transform="matrix(0.728466,0,0,0.8625,35.1353,39.5556)">
                <g transform="matrix(0.971508,0,0,1,1.73443,0)">
                    <g transform="matrix(221.593,0,0,221.593,270.025,330.26)">
                    </g>
                    <text x="60.875px" y="330.26px" style="font-family:'Arial-BoldMT', 'Arial', sans-serif;font-weight:700;font-size:221.593px;fill:white;">W</text>
                </g>
            </g>
        </g>
    </g>
</svg>
