<?xml version="1.0" encoding="UTF-8" standalone="no"?>
<!DOCTYPE svg PUBLIC "-//W3C//DTD SVG 1.1//EN" "http://www.w3.org/Graphics/SVG/1.1/DTD/svg11.dtd">
<svg width="100%" height="100%" viewBox="0 0 512 512" version="1.1" xmlns="http://www.w3.org/2000/svg" xmlns:xlink="http://www.w3.org/1999/xlink" xml:space="preserve" xmlns:serif="http://www.serif.com/" style="fill-rule:evenodd;clip-rule:evenodd;stroke-linejoin:round;stroke-miterlimit:2;">
    <rect id="アートボード1" x="0" y="0" width="512" height="512" style="fill:none;"/>
    <g id="アートボード11" serif:id="アートボード1">
        <g>
            <g transform="matrix(1.07982,0,0,1.04379,-41.9028,-8.29614)">
                <path d="M486.981,172.665L486.981,329.038C486.981,406.429 426.246,469.26 351.437,469.26L200.328,469.26C125.519,469.26 64.784,406.429 64.784,329.038L64.784,172.665C64.784,95.274 125.519,32.443 200.328,32.443L351.437,32.443C426.246,32.443 486.981,95.274 486.981,172.665Z" style="fill:url(#_Linear1);"/>
            </g>
            <g>
                <g transform="matrix(1.01112,0,0,1.0125,-6.21089,-2.30241)">
                    <path d="M273.428,184.195C296.65,184.195 315.475,202.994 315.475,226.184C315.475,254.881 315.475,291.08 315.475,310.339C315.475,317.799 309.419,323.846 301.949,323.846C275.503,323.846 215.964,323.846 175.151,323.846C151.93,323.846 133.105,305.047 133.105,281.857C133.105,253.159 133.105,216.961 133.105,197.701C133.105,190.242 139.16,184.195 146.63,184.195C173.077,184.195 232.616,184.195 273.428,184.195Z" style="fill:white;"/>
                </g>
                <g transform="matrix(7.1114e-17,-1.16138,1.00388,6.14697e-17,42.9355,740.485)">
                    <path d="M475.8,322.66C477.758,325.487 478.142,329.364 476.786,332.63C475.431,335.897 472.576,337.975 469.444,337.975L364.881,337.975C361.749,337.975 358.895,335.897 357.539,332.63C356.183,329.364 356.567,325.487 358.526,322.66C368.587,308.136 382.788,287.635 387.103,281.406C387.92,280.226 389.156,279.54 390.462,279.54C399.427,279.54 434.898,279.54 443.863,279.54C445.169,279.54 446.405,280.226 447.222,281.406C451.537,287.635 465.738,308.136 475.8,322.66Z" style="fill:white;"/>
                </g>
            </g>
        </g>
    </g>
    <defs>
        <linearGradient id="_Linear1" x1="0" y1="0" x2="1" y2="0" gradientUnits="userSpaceOnUse" gradientTransform="matrix(2.27864,436.818,-422.242,2.3573,275.883,32.4426)"><stop offset="0" style="stop-color:rgb(96,179,255);stop-opacity:1"/><stop offset="1" style="stop-color:rgb(72,128,229);stop-opacity:1"/></linearGradient>
    </defs>
</svg>
