<?xml version="1.0" encoding="UTF-8" standalone="no"?>
<!DOCTYPE svg PUBLIC "-//W3C//DTD SVG 1.1//EN" "http://www.w3.org/Graphics/SVG/1.1/DTD/svg11.dtd">
<svg width="100%" height="100%" viewBox="0 0 512 512" version="1.1" xmlns="http://www.w3.org/2000/svg" xmlns:xlink="http://www.w3.org/1999/xlink" xml:space="preserve" xmlns:serif="http://www.serif.com/" style="fill-rule:evenodd;clip-rule:evenodd;stroke-linejoin:round;stroke-miterlimit:1.5;">
    <rect id="アートボード1" x="0" y="0" width="512" height="512" style="fill:none;"/>
    <g id="アートボード11" serif:id="アートボード1">
        <g>
            <g transform="matrix(0.707107,0.707107,-0.707107,0.707107,235.695,-159.501)">
                <path d="M490.504,130.357L490.504,428.535C490.504,446.888 475.604,461.789 457.25,461.789L159.072,461.789C140.719,461.789 125.818,446.888 125.818,428.535L125.818,130.357C125.818,112.003 140.719,97.102 159.072,97.102L457.25,97.102C475.604,97.102 490.504,112.003 490.504,130.357Z" style="fill:rgb(255,95,77);"/>
            </g>
            <g transform="matrix(1,0,0,1,-9.59475,-27.1149)">
                <circle cx="265.595" cy="153.071" r="39.021" style="fill:white;"/>
            </g>
            <g transform="matrix(1,0,0,1,120.434,102.929)">
                <circle cx="265.595" cy="153.071" r="39.021" style="fill:white;"/>
            </g>
            <g transform="matrix(1,0,0,1,-9.59475,232.973)">
                <circle cx="265.595" cy="153.071" r="39.021" style="fill:white;"/>
            </g>
            <g transform="matrix(0.971149,-0.0151732,-0.0415738,0.97192,21.7804,13.0459)">
                <path d="M177.611,53.17L386.029,256" style="fill:none;stroke:white;stroke-width:31.8px;"/>
            </g>
            <g transform="matrix(0.986303,-1.88075e-05,-0.0268257,0.986668,-26.8664,106.242)">
                <path d="M287.31,18.966L294.508,283.589" style="fill:none;stroke:white;stroke-width:30.83px;stroke-linecap:round;"/>
            </g>
        </g>
    </g>
</svg>
