<?xml version="1.0" encoding="UTF-8" standalone="no"?>
<!DOCTYPE svg PUBLIC "-//W3C//DTD SVG 1.1//EN" "http://www.w3.org/Graphics/SVG/1.1/DTD/svg11.dtd">
<svg width="100%" height="100%" viewBox="0 0 512 512" version="1.1" xmlns="http://www.w3.org/2000/svg" xmlns:xlink="http://www.w3.org/1999/xlink" xml:space="preserve" xmlns:serif="http://www.serif.com/" style="fill-rule:evenodd;clip-rule:evenodd;stroke-linejoin:bevel;stroke-miterlimit:1.5;">
    <rect id="アートボード1" x="0" y="0" width="512" height="512" style="fill:none;"/>
    <g id="アートボード11" serif:id="アートボード1">
        <g>
            <path d="M483.852,144.368L483.852,446.328C483.852,462.02 471.112,474.76 455.42,474.76L139.48,494.776C123.787,494.776 111.047,482.036 111.047,466.344L111.047,164.384C111.047,148.692 123.787,135.952 139.48,135.952L455.42,115.935C471.112,115.935 483.852,128.675 483.852,144.368ZM102.035,465.176L36.321,389.581C31.347,383.859 27.309,375.175 27.309,370.201L27.309,52.161C27.309,47.187 31.347,47.795 36.321,53.517L102.035,129.112C107.009,134.834 111.047,143.518 111.047,148.492L111.047,466.532C111.047,466.532 117.415,488.784 102.035,465.176ZM369.481,41.234L438.564,93.121C480.401,126.347 464.376,115.449 453.129,115.443L138.437,134.576C125.838,135.45 111.153,128.497 96.225,116.873L31.138,49.093C31.138,49.093 51.639,70.299 31.138,49.093L336.786,29.504C349.385,28.63 354.553,29.61 369.481,41.234Z" style="fill:rgb(9,5,1);fill-opacity:0;stroke:black;stroke-width:20px;"/>
            <g transform="matrix(0.896858,0,0,0.551579,27.5851,187.376)">
                <path d="M243.573,392.128L271.859,390.339L271.925,393.118C272.432,414.303 262.281,432.145 249.252,432.969L174.558,437.693L174.492,434.915C173.985,413.73 184.136,395.888 197.165,395.063L204.16,394.621L204.16,58.367L174.556,58.367L174.556,47.851C174.556,37.67 177.043,27.906 181.471,20.707C185.899,13.508 191.904,9.463 198.165,9.463L269.707,9.463L269.707,9.544L269.785,9.463L375.739,280.784L375.739,38.795L345.671,40.697L345.604,37.918C345.098,16.733 355.249,-1.109 368.278,-1.933L442.972,-6.658L443.038,-3.879C443.545,17.306 433.394,35.148 420.365,35.972L415.151,36.302L415.151,394.14L415.023,394.14C413.52,411.503 398.931,425.146 381.181,425.146C368.436,425.146 357.32,418.112 351.509,407.717L351.417,407.812L351.046,406.859C349.922,404.707 349.023,402.421 348.378,400.03L243.573,131.648L243.573,392.128Z" style="fill:rgb(2,2,1);"/>
            </g>
        </g>
    </g>
</svg>
