<?xml version="1.0" encoding="UTF-8" standalone="no"?>
<!DOCTYPE svg PUBLIC "-//W3C//DTD SVG 1.1//EN" "http://www.w3.org/Graphics/SVG/1.1/DTD/svg11.dtd">
<svg width="100%" height="100%" viewBox="0 0 512 512" version="1.1" xmlns="http://www.w3.org/2000/svg" xmlns:xlink="http://www.w3.org/1999/xlink" xml:space="preserve" xmlns:serif="http://www.serif.com/" style="fill-rule:evenodd;clip-rule:evenodd;stroke-linejoin:round;stroke-miterlimit:2;">
    <rect id="アートボード1" x="0" y="0" width="512" height="512" style="fill:none;"/>
    <g id="アートボード11" serif:id="アートボード1">
        <g>
            <g transform="matrix(1.02643,0,0,1.02643,-119.568,38.6106)">
                <circle cx="392.289" cy="211.791" r="201.73" style="fill:rgb(245,168,140);"/>
            </g>
            <g transform="matrix(3.63728,0,0,3.72035,-953.648,-527.665)">
                <path d="M283.089,210.643L340.017,210.643L396.945,210.643C396.945,241.381 371.458,266.3 340.017,266.3C308.577,266.3 283.089,241.381 283.089,210.643Z" style="fill:rgb(220,100,79);"/>
            </g>
            <g transform="matrix(-3.63728,-4.45438e-16,4.55611e-16,-3.72035,1519.83,1039.66)">
                <path d="M340.017,266.3L340.017,210.643L396.945,210.643C396.945,241.381 371.458,266.3 340.017,266.3Z" style="fill:rgb(245,122,99);"/>
            </g>
            <g transform="matrix(1.02643,0,0,1.02643,-119.568,38.6106)">
                <path d="M241.928,346.223C209.988,310.529 190.558,263.411 190.558,211.791C190.558,167.871 204.625,127.209 228.494,94.071L371.801,94.071C383.108,94.071 392.289,103.251 392.289,114.559L392.289,325.735C392.289,337.042 383.108,346.223 371.801,346.223L241.928,346.223Z" style="fill-opacity:0.23;"/>
            </g>
            <g transform="matrix(1.15459,0,0,1.15459,-81.977,-42.5649)">
                <path d="M307.787,164.721L307.787,352.456C307.787,362.508 299.626,370.67 289.573,370.67L101.838,370.67C91.786,370.67 83.625,362.508 83.625,352.456L83.625,164.721C83.625,154.669 91.786,146.507 101.838,146.507L289.573,146.507C299.626,146.507 307.787,154.669 307.787,164.721Z" style="fill:rgb(186,65,43);"/>
            </g>
            <g transform="matrix(1,0,0,1,17.8165,-2.67699)">
                <g transform="matrix(0.971508,0,0,1,1.4668,0)">
                    <g transform="matrix(221.593,0,0,221.593,199.282,337.987)">
                    </g>
                    <text x="51.482px" y="337.987px" style="font-family:'Arial-BoldMT', 'Arial', sans-serif;font-weight:700;font-size:221.593px;fill:white;">P</text>
                </g>
            </g>
        </g>
    </g>
</svg>
