<?xml version="1.0" encoding="UTF-8" standalone="no"?>
<!DOCTYPE svg PUBLIC "-//W3C//DTD SVG 1.1//EN" "http://www.w3.org/Graphics/SVG/1.1/DTD/svg11.dtd">
<svg width="100%" height="100%" viewBox="0 0 512 512" version="1.1" xmlns="http://www.w3.org/2000/svg" xmlns:xlink="http://www.w3.org/1999/xlink" xml:space="preserve" xmlns:serif="http://www.serif.com/" style="fill-rule:evenodd;clip-rule:evenodd;stroke-linejoin:round;stroke-miterlimit:2;">
    <rect id="アートボード1" x="0" y="0" width="512" height="512" style="fill:none;"/>
    <g id="アートボード11" serif:id="アートボード1">
        <g>
            <g transform="matrix(0.64957,0,0,0.402763,314.668,189.006)">
                <path d="M34.259,355.026L34.259,70.899C34.259,43.644 47.979,21.516 64.878,21.516L232.95,21.516C249.849,21.516 263.57,43.644 263.57,70.899L263.57,355.026C263.57,448.048 212.194,523.57 148.914,523.57C85.634,523.57 34.259,448.048 34.259,355.026Z" style="fill:rgb(65,77,177);"/>
            </g>
            <g transform="matrix(1.02269,0,0,0.704132,117.582,97.3457)">
                <path d="M34.259,355.026L34.259,159.25C34.259,149.996 39.859,142.482 46.757,142.482L251.071,142.482C257.969,142.482 263.57,149.996 263.57,159.25L263.57,355.026C263.57,448.048 212.194,523.57 148.914,523.57C85.634,523.57 34.259,448.048 34.259,355.026Z" style="fill:rgb(116,124,215);"/>
            </g>
            <g transform="matrix(1.02269,0,0,0.704132,117.151,97.3457)">
                <path d="M39.643,406.18C36.146,390.044 34.259,372.856 34.259,355.026L34.259,159.25C34.259,149.996 39.859,142.482 46.757,142.482L147.488,142.482L147.488,372.597C147.488,391.132 137.127,406.18 124.366,406.18L39.643,406.18Z" style="fill-opacity:0.2;"/>
            </g>
            <g transform="matrix(1.15914,0,0,1.15914,-98.0098,29.4817)">
                <circle cx="321.309" cy="64.413" r="58.213" style="fill:rgb(116,124,215);"/>
            </g>
            <g transform="matrix(1.15914,0,0,1.15914,-97.9659,29.5132)">
                <path d="M315.709,122.36C299.471,120.807 285.17,112.571 275.592,100.437L295.309,100.437C306.568,100.437 315.709,109.578 315.709,120.838L315.709,122.36Z" style="fill-opacity:0.2;"/>
            </g>
            <g transform="matrix(0.81571,0,0,0.81571,163.664,74.2776)">
                <circle cx="321.309" cy="64.413" r="58.213" style="fill:rgb(65,77,177);"/>
            </g>
            <g transform="matrix(1.03385,0,0,1.03534,-16.4926,-10.2261)">
                <path d="M263.57,165.322L263.57,348.954C263.57,361.559 253.321,371.793 240.697,371.793L57.131,371.793C44.507,371.793 34.259,361.559 34.259,348.954L34.259,165.322C34.259,152.717 44.507,142.482 57.131,142.482L240.697,142.482C253.321,142.482 263.57,152.717 263.57,165.322Z" style="fill:rgb(65,77,177);"/>
            </g>
            <g transform="matrix(0.980608,0,0,0.829733,32.8296,46.0176)">
                <g transform="matrix(0.971508,0,0,1,1.17663,0)">
                    <g transform="matrix(220.077,0,0,220.077,175.729,331.84)">
                    </g>
                    <text x="41.297px" y="331.84px" style="font-family:'Arial-BoldMT', 'Arial', sans-serif;font-weight:700;font-size:220.077px;fill:white;">T</text>
                </g>
            </g>
        </g>
    </g>
</svg>
